<svg id="Layer_1" data-name="Layer 1" xmlns="http://www.w3.org/2000/svg" viewBox="0 0 523 713"><defs><style>.cls-1{fill:#e0e0e0;}.cls-2{fill:#e6e7e8;}.cls-3{fill:#f1f1f2;}.cls-4{fill:#31faff;}.cls-5{fill:#404041;}.cls-6{fill:#231f20;}.cls-7{fill:#58595b;}.cls-8{fill:#384e94;}.cls-10,.cls-9{fill:none;stroke-linecap:round;stroke-miterlimit:10;stroke-width:12px;stroke-dasharray:1 20;}.cls-9{stroke:#31faff;}.cls-10{stroke:#fff;}</style></defs><title>cloudcomputing</title><g id="_Group_" data-name="&lt;Group&gt;"><rect id="_Rectangle_" data-name="&lt;Rectangle&gt;" class="cls-1" x="132" y="285.33" width="335.33" height="91.33" rx="45.67" ry="45.67"/><rect id="_Rectangle_2" data-name="&lt;Rectangle&gt;" class="cls-1" x="174.22" y="225.33" width="136.45" height="134" rx="67" ry="67"/><rect id="_Rectangle_3" data-name="&lt;Rectangle&gt;" class="cls-2" x="35.59" y="333.61" width="201.74" height="76.06" rx="38.03" ry="38.03"/><rect id="_Rectangle_4" data-name="&lt;Rectangle&gt;" class="cls-2" x="24" y="317.84" width="92.29" height="91.36" rx="45.68" ry="45.68"/><rect id="_Rectangle_5" data-name="&lt;Rectangle&gt;" class="cls-2" x="86.32" y="257.64" width="121.68" height="121.68" rx="60.84" ry="60.84"/><rect id="_Rectangle_6" data-name="&lt;Rectangle&gt;" class="cls-3" x="164.67" y="384.86" width="152.34" height="53.48" rx="26.74" ry="26.74"/><rect id="_Rectangle_7" data-name="&lt;Rectangle&gt;" class="cls-3" x="215.75" y="380.64" width="84.84" height="64.92" rx="32.46" ry="32.46" transform="translate(265.9 -92.34) rotate(35.84)"/><rect id="_Rectangle_8" data-name="&lt;Rectangle&gt;" class="cls-3" x="233.23" y="339.65" width="63.81" height="66.41" rx="31.91" ry="31.91"/><rect id="_Rectangle_9" data-name="&lt;Rectangle&gt;" class="cls-1" x="260.67" y="185.33" width="162" height="180.67" rx="81" ry="81"/></g><circle id="_Path_" data-name="&lt;Path&gt;" class="cls-4" cx="257.5" cy="64.5" r="64.5"/><rect id="_Rectangle_10" data-name="&lt;Rectangle&gt;" class="cls-5" y="545" width="159" height="107" rx="12" ry="12"/><rect id="_Rectangle_11" data-name="&lt;Rectangle&gt;" class="cls-6" x="190" y="594" width="179" height="119" rx="12" ry="12"/><rect id="_Rectangle_12" data-name="&lt;Rectangle&gt;" class="cls-7" x="340" y="447" width="183" height="116" rx="12" ry="12"/><polygon id="_Path_2" data-name="&lt;Path&gt;" class="cls-8" points="244 36.58 244 91.42 287 65.25 244 36.58"/><g id="_Group_2" data-name="&lt;Group&gt;"><circle id="_Path_3" data-name="&lt;Path&gt;" class="cls-4" cx="80.5" cy="597.5" r="32.5"/><polygon id="_Path_4" data-name="&lt;Path&gt;" class="cls-8" points="73.7 583.43 73.7 611.06 95.36 597.88 73.7 583.43"/></g><g id="_Group_3" data-name="&lt;Group&gt;"><circle id="_Path_5" data-name="&lt;Path&gt;" class="cls-4" cx="281.5" cy="652.5" r="32.5"/><polygon id="_Path_6" data-name="&lt;Path&gt;" class="cls-8" points="274.7 638.43 274.7 666.06 296.36 652.88 274.7 638.43"/></g><g id="_Group_4" data-name="&lt;Group&gt;"><circle id="_Path_7" data-name="&lt;Path&gt;" class="cls-4" cx="432.5" cy="504.5" r="32.5"/><polygon id="_Path_8" data-name="&lt;Path&gt;" class="cls-8" points="425.7 490.43 425.7 518.06 447.36 504.88 425.7 490.43"/></g><line id="_Path_9" data-name="&lt;Path&gt;" class="cls-9" x1="88" y1="529" x2="148" y2="424"/><line id="_Path_10" data-name="&lt;Path&gt;" class="cls-9" x1="282" y1="579" x2="253" y2="448"/><line id="_Path_11" data-name="&lt;Path&gt;" class="cls-9" x1="426" y1="432" x2="353" y2="390"/><line id="_Path_12" data-name="&lt;Path&gt;" class="cls-10" x1="257.5" y1="209.5" x2="257.5" y2="135.5"/></svg>