<svg id="Layer_1" data-name="Layer 1" xmlns="http://www.w3.org/2000/svg" viewBox="0 0 508.33 628.17"><defs><style>.cls-1{fill:#f5f6f7;}.cls-2{fill:#efeff4;}.cls-3{fill:#fff;}.cls-4{fill:#31faff;}.cls-5{fill:#2c2a44;}.cls-6{fill:#38386d;}.cls-7{fill:#5c5c77;}.cls-8{fill:#384e94;}.cls-9{fill:none;stroke:#31faff;stroke-linecap:round;stroke-miterlimit:10;stroke-width:12px;stroke-dasharray:1 20;}</style></defs><title>NEWCLOUD</title><rect id="_Rectangle_" data-name="&lt;Rectangle&gt;" class="cls-1" x="121.33" y="241.33" width="335.33" height="91.33" rx="45.67" ry="45.67"/><rect id="_Rectangle_2" data-name="&lt;Rectangle&gt;" class="cls-1" x="163.55" y="181.33" width="136.45" height="134" rx="67" ry="67"/><rect id="_Rectangle_3" data-name="&lt;Rectangle&gt;" class="cls-2" x="24.93" y="289.61" width="201.74" height="76.06" rx="38.03" ry="38.03"/><rect id="_Rectangle_4" data-name="&lt;Rectangle&gt;" class="cls-2" x="13.33" y="273.84" width="92.29" height="91.36" rx="45.68" ry="45.68"/><rect id="_Rectangle_5" data-name="&lt;Rectangle&gt;" class="cls-2" x="75.65" y="213.64" width="121.68" height="121.68" rx="60.84" ry="60.84"/><rect id="_Rectangle_6" data-name="&lt;Rectangle&gt;" class="cls-3" x="154" y="340.86" width="152.34" height="53.48" rx="26.74" ry="26.74"/><rect id="_Rectangle_7" data-name="&lt;Rectangle&gt;" class="cls-3" x="215.75" y="380.64" width="84.84" height="64.92" rx="32.46" ry="32.46" transform="translate(255.23 -136.34) rotate(35.84)"/><rect id="_Rectangle_8" data-name="&lt;Rectangle&gt;" class="cls-3" x="222.56" y="295.65" width="63.81" height="66.41" rx="31.91" ry="31.91"/><rect id="_Rectangle_9" data-name="&lt;Rectangle&gt;" class="cls-1" x="250" y="141.33" width="162" height="180.67" rx="81" ry="81"/><circle id="_Path_" data-name="&lt;Path&gt;" class="cls-4" cx="246.83" cy="64.5" r="64.5"/><rect id="_Rectangle_10" data-name="&lt;Rectangle&gt;" class="cls-5" y="454.33" width="159" height="107" rx="25.25" ry="25.25"/><rect id="_Rectangle_11" data-name="&lt;Rectangle&gt;" class="cls-6" x="178.17" y="509.17" width="179" height="119" rx="25.17" ry="25.17"/><rect id="_Rectangle_12" data-name="&lt;Rectangle&gt;" class="cls-7" x="325.33" y="386.33" width="183" height="116" rx="29.92" ry="29.92"/><path id="_Path_2" data-name="&lt;Path&gt;" class="cls-8" d="M261.34,104v47.32a8.41,8.41,0,0,0,12.79,7.19l37.11-22.59a8.42,8.42,0,0,0,.29-14.19L274.42,96.94A8.41,8.41,0,0,0,261.34,104Z" transform="translate(-35.56 -63.39)"/><line id="_Path_3" data-name="&lt;Path&gt;" class="cls-9" x1="96.33" y1="440.67" x2="137.33" y2="380"/><line id="_Path_4" data-name="&lt;Path&gt;" class="cls-9" x1="261.67" y1="496.67" x2="242.33" y2="404"/><line id="_Path_5" data-name="&lt;Path&gt;" class="cls-9" x1="409" y1="375.33" x2="367" y2="348.67"/><line id="_Path_6" data-name="&lt;Path&gt;" class="cls-9" x1="246.83" y1="165.5" x2="246.83" y2="133.5"/><circle id="_Path_7" data-name="&lt;Path&gt;" class="cls-4" cx="79.83" cy="507.5" r="31.17"/><path id="_Path_8" data-name="&lt;Path&gt;" class="cls-8" d="M105.22,559.32v22.87a4.06,4.06,0,0,0,6.18,3.47l17.93-10.91a4.07,4.07,0,0,0,.14-6.86l-17.93-11.95A4.06,4.06,0,0,0,105.22,559.32Z" transform="translate(-35.56 -63.39)"/><circle id="_Path_9" data-name="&lt;Path&gt;" class="cls-4" cx="267.83" cy="568.83" r="31.17"/><path id="_Path_10" data-name="&lt;Path&gt;" class="cls-8" d="M293.22,620.66v22.86A4.07,4.07,0,0,0,299.4,647l17.93-10.92a4.07,4.07,0,0,0,.14-6.86l-17.93-12A4.07,4.07,0,0,0,293.22,620.66Z" transform="translate(-35.56 -63.39)"/><circle id="_Path_11" data-name="&lt;Path&gt;" class="cls-4" cx="418.5" cy="443.17" r="31.17"/><path id="_Path_12" data-name="&lt;Path&gt;" class="cls-8" d="M443.89,495v22.87a4.06,4.06,0,0,0,6.18,3.47L468,510.42a4.07,4.07,0,0,0,.14-6.86l-17.93-12A4.07,4.07,0,0,0,443.89,495Z" transform="translate(-35.56 -63.39)"/></svg>