<svg id="Layer_1" data-name="Layer 1" xmlns="http://www.w3.org/2000/svg" viewBox="0 0 337.01 141.07"><defs><style>.cls-1{fill:#ffffff;}.cls-2{fill:none;stroke:#ffffff;stroke-linecap:round;stroke-linejoin:round;stroke-width:9px;}</style></defs><title>sync</title><g id="_Group_" data-name="&lt;Group&gt;"><g id="_Group_2" data-name="&lt;Group&gt;"><g id="_Group_3" data-name="&lt;Group&gt;"><path class="cls-1" d="M52.78,12.89q12.88,0,20.19,7.75t5.48,18.64l-.24.48H67.12a4.41,4.41,0,0,1-4.43-4,13.28,13.28,0,0,0-2.27-6.68q-3-4.36-9.24-4.36A15.22,15.22,0,0,0,41,28.24a12.44,12.44,0,0,0-4.72,8.08q-.72,5.11,1.8,7.83t11.81,7.21l.29.13Q63,56.26,68.9,62.55t4.67,15.83A25.76,25.76,0,0,1,62.82,96.13q-9.07,6.56-22.67,6.56-14,0-21.47-8.24a21.16,21.16,0,0,1-5.56-18.87l.16-.48H24.86a3.41,3.41,0,0,1,3.38,3.39q.12,5.81,3.23,8.73,4,3.72,10.6,3.71a16.19,16.19,0,0,0,10.39-3.35,12.72,12.72,0,0,0,5-8.4c.48-3.47-.23-6.3-2.12-8.52S49.49,66,43.52,63.15l-.19-.08Q30.78,58,25,52.15T20.48,37q1.44-10.32,10.35-17.2t22-6.87m0-9c-10.68,0-19.92,2.94-27.45,8.75-7.83,6-12.46,13.79-13.76,23-1.31,9,1.1,16.84,7,22.79,4.77,4.84,11.73,9.06,21.28,12.89,6.89,3.25,8.47,5,8.63,5.16a2.74,2.74,0,0,1,0,1.43,3.74,3.74,0,0,1-1.64,2.57,7.12,7.12,0,0,1-4.8,1.41c-3.08,0-4.1-1-4.44-1.27h0a5.4,5.4,0,0,1-.39-2.37A12.34,12.34,0,0,0,24.86,66.1H13.28a9,9,0,0,0-8.54,6.15l-.16.48A10.91,10.91,0,0,0,4.26,74,30.24,30.24,0,0,0,12,100.5c6.74,7.43,16.21,11.19,28.14,11.19,11,0,20.35-2.78,27.94-8.26A34.54,34.54,0,0,0,82.47,79.71a.59.59,0,0,0,0-.13c1.21-9-1.22-17-7-23.21a43.62,43.62,0,0,0-10-7.72,13.29,13.29,0,0,0,1.68.11H78.21a9,9,0,0,0,8.05-5l.24-.48a9.1,9.1,0,0,0,.83-2.52,29.76,29.76,0,0,0-7.81-26.31C72.9,7.45,63.9,3.89,52.78,3.89ZM45.15,38.4a6.23,6.23,0,0,1,.07-.83.88.88,0,0,0,0-.16c0-.29.13-1.06,1.6-2.3a6.14,6.14,0,0,1,4.34-1.39c1.51,0,1.73.32,1.82.46a4.22,4.22,0,0,1,.72,2.24,13.12,13.12,0,0,0,3.77,8.28c-1.25-.53-2.54-1-3.88-1.55a54.05,54.05,0,0,1-8.46-4.75Z" transform="translate(-3.73 -3.89)"/></g><g id="_Group_4" data-name="&lt;Group&gt;"><path class="cls-1" d="M159.22,14.49h0m0,0-45.9,100a56.78,56.78,0,0,1-10.56,15.19Q96.52,136,86.61,136a22.57,22.57,0,0,1-4.2-.44c-1.52-.3-3-.63-4.44-1l3.68-12a22,22,0,0,0,2.28.32,24.34,24.34,0,0,0,2.44.16q4.56,0,8.12-4.12a36.41,36.41,0,0,0,5.87-9.47l4.32-9L90.29,14.49H108l6.16,56.69.4,5.76.48.08,26.31-62.53h17.83m0-9H141.39a9,9,0,0,0-8.3,5.51l-13,30.94L117,13.51a9,9,0,0,0-8.95-8H90.29A9,9,0,0,0,81.41,16L95.34,99.06l-3.1,6.47-.14.3A27.43,27.43,0,0,1,87.67,113c-.2.23-.89,1-1.3,1,0,0-.45,0-1.52-.11a13.08,13.08,0,0,1-1.31-.17,8.94,8.94,0,0,0-10.49,6.16l-3.68,12a9,9,0,0,0,6.35,11.35c1.61.42,3.29.79,5,1.12a31.56,31.56,0,0,0,5.91.61c9.07,0,16.66-3,22.56-9a65.82,65.82,0,0,0,12.24-17.58l.09-.18,45.79-99.72a9,9,0,0,0-8.07-13Zm0,18Z" transform="translate(-3.73 -3.89)"/></g><g id="_Group_5" data-name="&lt;Group&gt;"><path class="cls-1" d="M208.16,12.89q11.11,0,16.43,8.55t2.76,26.31l-7.6,50.65a3.07,3.07,0,0,1-3,2.61h-10a3.07,3.07,0,0,1-3-3.52l7.47-49.66q1.83-12.7-.76-17.51t-9.56-4.8a17.28,17.28,0,0,0-9.87,3,27.22,27.22,0,0,0-7.5,7.74,3,3,0,0,0-.48,1.26L173.84,98.4a3.06,3.06,0,0,1-3,2.61H160.7a3.06,3.06,0,0,1-3-3.52l12-80.39a3.07,3.07,0,0,1,3-2.61h9a3.06,3.06,0,0,1,3.06,3.28,3.06,3.06,0,0,0,5.12,2.46,32.18,32.18,0,0,1,5-3.71,25.71,25.71,0,0,1,13.28-3.63m0-9a34.59,34.59,0,0,0-17.85,4.89l-.22.12a12.08,12.08,0,0,0-8.41-3.41h-9A12.14,12.14,0,0,0,160.8,15.76l-12,80.4A12.06,12.06,0,0,0,160.7,110h10.11a12.13,12.13,0,0,0,11.93-10.28l8.9-59.48A17.87,17.87,0,0,1,196,36a8.33,8.33,0,0,1,4.85-1.51,5.5,5.5,0,0,1,1.68.19c.2.6.93,3.54-.27,11.81l-7.46,49.63A12.06,12.06,0,0,0,206.68,110h10a12,12,0,0,0,11.93-10.27l7.6-50.65V49c2-14.13.72-24.71-4-32.34C227,8.31,218.7,3.89,208.16,3.89Z" transform="translate(-3.73 -3.89)"/></g><g id="_Group_6" data-name="&lt;Group&gt;"><path class="cls-1" d="M281.17,12.89q12.48,0,19.55,8.87,6,7.47,5.43,18.67a4.62,4.62,0,0,1-4.63,4.36h-6a4.62,4.62,0,0,1-4.63-4.68,18.06,18.06,0,0,0-2.09-9.51,10.16,10.16,0,0,0-9.44-5.24q-8.71,0-14.31,9t-7.52,22l-.48,3q-2.08,14.07.6,22.55t12,8.48q5.75,0,10.59-4.68a20.07,20.07,0,0,0,5.3-9.1,4.66,4.66,0,0,1,4.47-3.42h10.82l.24.48a31.41,31.41,0,0,1-11.31,20.87,33.24,33.24,0,0,1-21.95,8.16q-15.36,0-22.55-12.36t-4.4-31l.48-3q2.88-19.52,13.31-31.47t26.59-11.95m0-9c-13.43,0-24.66,5.06-33.37,15-8.07,9.25-13.26,21.37-15.43,36l-.47,3V58c-2.17,14.44-.32,26.84,5.52,36.86,6.41,11,16.9,16.82,30.33,16.82a42.13,42.13,0,0,0,27.73-10.26,40.31,40.31,0,0,0,14.46-26.64,9,9,0,0,0-.87-5.14l-.24-.48a9,9,0,0,0-8.06-5H289.94a13.74,13.74,0,0,0-13.13,9.95,11,11,0,0,1-2.9,5.1c-2,1.9-3.35,2.15-4.33,2.15-2.58,0-2.89-.64-3.38-2.19-.93-3-1.74-8.57-.28-18.48l.47-3v-.09c1.1-7.41,3.2-13.65,6.25-18.53s5.47-4.73,6.68-4.73,1.33.19,1.65.76a9.55,9.55,0,0,1,.88,4.83,13.62,13.62,0,0,0,13.63,13.84h6a13.58,13.58,0,0,0,13.62-12.93c.45-9.68-2-18-7.38-24.71-6.4-8-15.59-12.26-26.59-12.26Z" transform="translate(-3.73 -3.89)"/></g><g id="_Group_7" data-name="&lt;Group&gt;"><path class="cls-1" d="M326.86,84.78a4.87,4.87,0,0,1,4.82,5.59l-.95,6.48A4.88,4.88,0,0,1,325.9,101h-6.53a4.88,4.88,0,0,1-4.83-5.59l1-6.48a4.87,4.87,0,0,1,4.82-4.16h6.54m0-9h-6.54A14,14,0,0,0,306.6,87.62l-1,6.49A13.87,13.87,0,0,0,319.37,110h6.53a14,14,0,0,0,13.73-11.85l1-6.48a13.87,13.87,0,0,0-13.73-15.9Z" transform="translate(-3.73 -3.89)"/></g></g><line id="_Path_" data-name="&lt;Path&gt;" class="cls-2" x1="37.39" y1="36.99" x2="48.96" y2="70.86"/><line id="_Path_2" data-name="&lt;Path&gt;" class="cls-2" x1="113.1" y1="48.78" x2="118.02" y2="102.28"/><line id="_Path_3" data-name="&lt;Path&gt;" class="cls-2" x1="184.81" y1="33.07" x2="153.77" y2="69.43"/><path id="_Path_4" data-name="&lt;Path&gt;" class="cls-2" d="M241.25,49.67" transform="translate(-3.73 -3.89)"/><path id="_Path_5" data-name="&lt;Path&gt;" class="cls-2" d="M272,30.17" transform="translate(-3.73 -3.89)"/><path id="_Path_6" data-name="&lt;Path&gt;" class="cls-2" d="M237.42,55.17s8.83,30.16,29.75,30.5" transform="translate(-3.73 -3.89)"/></g></svg>